Release Name                    : Kill Bill Vol 1
Release Date                    : 10th October 2003
Size                            : 2.41 Gb
Duration                        : 1hr 50min
Gener                           : Action | Crime | Thriller


General

Format                          : Matroska
File size                       : 2.39 GiB
Duration                        : 1h 50mn
Overall bit rate                : 3 085 Kbps
Movie name                      : Kill Bill Vol 1 2003 720p BRRip (6ch) (Dual Audio) [Hindi-English] ~ crazyboy
Encoded date                    : UTC 2011-05-12 22:17:55
Writing application             : mkvmerge v4.7.0 ('Just Like You Imagined') built on Apr 21 2011 01:13:14
Writing library                 : libebml v1.2.0 + libmatroska v1.1.0


Video

ID                             : 1
Format                         : AVC
Format/Info                    : Advanced Video Codec
Format profile                 : High@L4.1
Format settings, CABAC         : Yes
Format settings, ReFrames      : 4 frames
Muxing mode                    : Header stripping
Codec ID                       : V_MPEG4/ISO/AVC
Duration                       : 1h 50mn
Bit rate                       : 2 448 Kbps
Width                          : 1 280 pixels
Height                         : 534 pixels
Display aspect ratio           : 2.35:1
Frame rate                     : 23.976 fps
Color space                    : YUV
Chroma subsampling             : 4:2:0
Bit depth                      : 8 bits
Scan type                      : Progressive
Bits/(Pixel*Frame)             : 0.149
Stream size                    : 1.89 GiB (79%)
Writing library                : x264 core 67 r1165M 6841c5e
Language                       : English


Audio #1

ID                             : 2
Format                         : AC-3
Format/Info                    : Audio Coding 3
Mode extension                 : CM (complete main)
Muxing mode                    : Header stripping
Codec ID                       : A_AC3
Duration                       : 1h 50mn
Bit rate mode                  : Constant
Bit rate                       : 384 Kbps
Channel(s)                     : 6 channels
Channel positions              : Front: L C R, Side: L R, LFE
Sampling rate                  : 48.0 KHz
Bit depth                      : 16 bits
Compression mode               : Lossy
Stream size                    : 304 MiB (12%)
Title                          : crazyboy
Language                       : English
Ripping By                     : crazyboy


Audio #2

ID                             : 3
Format                         : AC-3
Format/Info                    : Audio Coding 3
Mode extension                 : CM (complete main)
Muxing m                       : Header stripping
Codec ID                       : A_AC3
Duration                       : 1h 50mn
Bit rate mode                  : Constant
Bit rate                       : 192 Kbps
Channel(s)                     : 6 channels
Channel positions              : Front: L C R, Side: L R, LFE
Sampling rate                  : 48.0 KHz
Bit depth                      : 16 bits
Compression mode               : Lossy
Stream size                    : 152 MiB (6%)
Title                          : crazyboy
Language                       : Hindi
Ripping By                     : crazyboy


SAMPLE INCLUDE


SEED MOVIE  AFTER DOWNLOADING MOVIE  & LEAVE COMMENT ON MY WORK...